<svg xmlns="http://www.w3.org/2000/svg" viewBox="0 0 2051.87 569.36"><defs><style>.cls-1{fill:#1a1a1a;}</style></defs><g id="Capa_2" data-name="Capa 2"><g id="Capa_1-2" data-name="Capa 1"><path class="cls-1" d="M54.79,24.14a54.86,54.86,0,0,1,54.8,54.8v428.6A54.8,54.8,0,1,1,0,507.54V78.94a54.86,54.86,0,0,1,54.79-54.8"/><path class="cls-1" d="M424.89,17.12a61.81,61.81,0,0,0-61.81,61.82v428.6a61.82,61.82,0,1,0,123.64,0V78.94a61.82,61.82,0,0,0-61.83-61.82Z"/><path class="cls-1" d="M610.34,24.14a54.87,54.87,0,0,1,54.81,54.8v428.6a54.8,54.8,0,1,1-109.59,0V78.94a54.85,54.85,0,0,1,54.78-54.8"/><path class="cls-1" d="M240.24,24.14a54.87,54.87,0,0,1,54.81,54.8V333.75a54.86,54.86,0,0,1-54.81,54.79H185.45V78.94a54.86,54.86,0,0,1,54.79-54.8"/><path class="cls-1" d="M178.43,446.54V569.36H301.26A122.82,122.82,0,0,0,178.43,446.54Z"/><path class="cls-1" d="M2007.11,88.23a43.48,43.48,0,1,1,43.48-43.48A43.52,43.52,0,0,1,2007.11,88.23Zm0-84.22a40.75,40.75,0,1,0,40.75,40.74A40.78,40.78,0,0,0,2007.11,4Z"/><path class="cls-1" d="M2007.1,89.5a44.75,44.75,0,1,1,44.77-44.75A44.79,44.79,0,0,1,2007.1,89.5Zm0-86.94a42.2,42.2,0,1,0,42.22,42.19A42.23,42.23,0,0,0,2007.1,2.56Zm0,84.21a42,42,0,1,1,42-42A42.05,42.05,0,0,1,2007.1,86.77Zm0-81.48a39.46,39.46,0,1,0,39.48,39.46A39.52,39.52,0,0,0,2007.1,5.29Z"/><path class="cls-1" d="M1996.72,46.48V63.65l-3.58,0V25.85H2008c4.17,0,7.36.77,9.56,2.33s3.31,4.09,3.31,7.59a9.82,9.82,0,0,1-1.44,5.66,10.9,10.9,0,0,1-4.71,3.58,5.88,5.88,0,0,1,2.64,1.68,7.67,7.67,0,0,1,1.42,2.53,12.48,12.48,0,0,1,.59,3c.09,1,.16,2.07.19,3,0,1.44.09,2.63.18,3.58a22.79,22.79,0,0,0,.32,2.3,5.43,5.43,0,0,0,.44,1.39,2.25,2.25,0,0,0,.63.77v.31l-3.94,0a7,7,0,0,1-.81-2.62c-.15-1.12-.28-2.29-.36-3.52s-.17-2.41-.21-3.58a21.77,21.77,0,0,0-.3-2.83,5.7,5.7,0,0,0-1-2.44,4.53,4.53,0,0,0-1.7-1.39,7.78,7.78,0,0,0-2.24-.63,21,21,0,0,0-2.55-.16Zm11.13-3a16,16,0,0,0,3.7-.42,8.41,8.41,0,0,0,3-1.34,6.64,6.64,0,0,0,2-2.34,7.23,7.23,0,0,0,.74-3.42,7,7,0,0,0-.76-3.46,5.81,5.81,0,0,0-2-2.15,8.64,8.64,0,0,0-2.94-1.11,18.34,18.34,0,0,0-3.44-.31h-11.34V43.44Z"/><path class="cls-1" d="M1998,65l-6.14-.1V24.58H2008c4.53,0,7.89.83,10.32,2.56s3.83,4.71,3.83,8.62a11,11,0,0,1-1.67,6.41,10,10,0,0,1-3,2.83,10.61,10.61,0,0,1,.91.85,9.5,9.5,0,0,1,1.62,2.93,12,12,0,0,1,.68,3.34c.1,1,.15,2,.2,3,0,1.53.08,2.68.18,3.61s.2,1.65.3,2.23a3.56,3.56,0,0,0,.3,1,1.55,1.55,0,0,0,.27.38l.5.38v1.9l-1.25.3-4.68.08-.38-.66a8,8,0,0,1-1-3.08c-.15-1.15-.3-2.38-.37-3.63l0-.43c-.07-1.07-.12-2.13-.17-3.15a19.43,19.43,0,0,0-.28-2.66,4.37,4.37,0,0,0-.78-1.88,3,3,0,0,0-1.22-1,5.46,5.46,0,0,0-1.91-.55,17.41,17.41,0,0,0-2.35-.15h-10Zm-2.56-19.75H2008a23.77,23.77,0,0,1,2.7.15,9.78,9.78,0,0,1,2.66.78,5.58,5.58,0,0,1,2.15,1.75,7,7,0,0,1,1.26,3,19.46,19.46,0,0,1,.32,3.06c0,1,.1,2,.18,3.1l0,.43c.08,1.2.23,2.33.38,3.43a6.7,6.7,0,0,0,.32,1.48H2019a6.86,6.86,0,0,1-.25-1,22.8,22.8,0,0,1-.33-2.46c-.1-1-.15-2.15-.17-3.66,0-1-.1-1.93-.21-2.93a11.24,11.24,0,0,0-.52-2.7,6.42,6.42,0,0,0-1.18-2.11,4.88,4.88,0,0,0-2.1-1.33l-3.06-1.05,3-1.33a9.63,9.63,0,0,0,4.18-3.1,8.78,8.78,0,0,0,1.23-5c0-3.09-.9-5.22-2.76-6.52s-4.93-2.1-8.84-2.1h-13.53v35.2h1Zm12.41-.47h-12.41V27.61h12.63a19.1,19.1,0,0,1,3.66.33,9.9,9.9,0,0,1,3.41,1.3,6.92,6.92,0,0,1,2.48,2.58,8.67,8.67,0,0,1,.9,4.11,8.22,8.22,0,0,1-.88,4,7.5,7.5,0,0,1-2.38,2.78,9.18,9.18,0,0,1-3.4,1.55A17.61,17.61,0,0,1,2007.85,44.73ZM1998,42.17h9.85a14,14,0,0,0,3.4-.4,6.34,6.34,0,0,0,2.49-1.13,5.34,5.34,0,0,0,1.65-1.9,6.17,6.17,0,0,0,.58-2.81,6.06,6.06,0,0,0-.61-2.88,4.39,4.39,0,0,0-1.57-1.63,7.28,7.28,0,0,0-2.54-1,19.12,19.12,0,0,0-3.18-.27H1998Z"/><polygon class="cls-1" points="952.19 214.44 849.11 214.44 849.11 10.29 829.54 10.29 829.54 232.84 952.19 232.84 952.19 214.44"/><path class="cls-1" d="M1401.52,154l.65-3.76h-19.29l-.5,2.58c-8.14,40.07-33.15,64-67,64-44.63,0-71.29-35.6-71.29-95.21s26.66-95.21,71.29-95.21c34.35,0,58.73,22.37,67,61.41l.52,2.56h19.3l-.68-3.76c-8.77-49.59-40.94-79.18-86.09-79.18-57.06,0-91.13,42.7-91.13,114.18s34.07,114.21,91.13,114.21C1360.55,235.77,1392.72,205.17,1401.52,154Z"/><polygon class="cls-1" points="1618.11 10.29 1547.3 144.74 1475.94 10.29 1452.58 10.29 1530.18 156.01 1540.53 156.01 1499.94 232.84 1522.37 232.84 1640.56 10.29 1618.11 10.29"/><path class="cls-1" d="M1888.09,171.5c0-50.54-42-57.48-79.2-63.6-32.28-5.23-60.11-9.77-60.11-39.48,0-26.74,20.54-42.07,56.37-42.07,34.38,0,55.88,21.24,57.53,56.82l.15,3.06h19.54l-.12-3.33c-1.83-47.28-30.65-75.52-77.1-75.52-47.73,0-76.22,22.83-76.22,61,0,44.92,39.44,51.44,74.69,57.25,33.23,5.69,64.62,11,64.62,45.83,0,28.76-23,45.27-63.09,45.27-37.76,0-60.53-21.87-62.51-60l-.16-3h-19.56l.15,3.36c2.12,49.28,32.82,78.7,82.08,78.7C1857.09,235.77,1888.09,211.74,1888.09,171.5Z"/><polygon class="cls-1" points="965.07 441.35 849.11 441.35 849.11 341.18 829.54 341.18 829.54 563.73 849.11 563.73 849.11 459.74 965.07 459.74 965.07 563.73 984.61 563.73 984.61 341.18 965.07 341.18 965.07 441.35"/><path class="cls-1" d="M1147.72,338.27c-57.6,0-92,42.7-92,114.18s34.4,114.21,92,114.21,92-42.7,92-114.21S1205.33,338.27,1147.72,338.27Zm72.14,114.18c0,59.61-27,95.22-72.14,95.22-45.85,0-72.15-34.71-72.15-95.22s26.3-95.21,72.15-95.21C1192.9,357.24,1219.86,392.84,1219.86,452.45Z"/><path class="cls-1" d="M1444.84,488.22c0,32.91-26.8,59.79-59.71,59.44-36.31-.39-57.1-21.73-57.1-58.7V341.18h0a19.57,19.57,0,0,0-19.57,19.57V487.51c0,49.56,29,79.15,77.68,79.15s77.7-29.59,77.7-79.15V341.18h0a19,19,0,0,0-19,19Z"/><path class="cls-1" d="M1615.45,438.8c-32.27-5.24-60.11-9.77-60.11-39.49,0-26.74,20.55-42.07,56.38-42.07,34.37,0,55.87,21.25,57.53,56.83l.14,3.05h19.55l-.13-3.33c-1.83-47.28-30.64-75.52-77.09-75.52-47.73,0-76.22,22.83-76.22,61,0,44.92,39.43,51.44,74.69,57.25,33.22,5.69,64.62,11.05,64.62,45.83,0,28.76-23,45.28-63.09,45.28-37.76,0-60.54-21.88-62.52-60l-.15-3h-19.57l.15,3.36c2.13,49.28,32.83,78.7,82.09,78.7,51.94,0,82.93-24,82.93-64.27C1694.65,451.85,1652.66,444.91,1615.45,438.8Z"/><path class="cls-1" d="M1774.28,545.34V457.71h106.59V439.32H1774.28V359.57h98.42a18.39,18.39,0,0,0,18.39-18.39H1754.71V563.73H1894.3a18.39,18.39,0,0,0-18.39-18.39Z"/><path class="cls-1" d="M1165.92,153.68V10.29h0a19,19,0,0,0-19,19V154.4c0,32.91-26.8,59.79-59.71,59.44-36.31-.39-57.1-21.74-57.1-58.7V10.29h0a19.57,19.57,0,0,0-19.57,19.56V153.68c0,49.56,29,79.16,77.68,79.16S1165.92,203.24,1165.92,153.68Z"/><path class="cls-1" d="M1662.1,47.05V62.34h37.66v-53h0A37.67,37.67,0,0,0,1662.1,47.05Z"/></g></g></svg>